# xmcd CD database file
#
# Track frame offsets:
#	150
#	17801
#	30679
#	53665
#	76092
#	98575
#	116854
#	134864
#	155751
#	167275
#	194915
#	222289
#	240608
#	257307
#	274905
#
# Disc length: 3861 seconds
#
# Revision: 0
# Processed by: cddbd v1.5.1PL0 Copyright (c) Steve Scherf et al.
# Submitted via: CDex 1.51
#
DISCID=d00f130f
DTITLE=fishmans - 空中　ベスト・オブ・フィッシュマンズ DISC 2 [RARE TRACKS and B-SIDES 1987-1994]
DYEAR=2005
DGENRE=Rock
TTITLE0=Blue Summer (Demo 1987)
TTITLE1=ピアノ (Demo 1990)
TTITLE2=ひこうき (Studio Demo 1990)
TTITLE3=Little Flapper (Sg. B-SIDE 1991)
TTITLE4=It's Be Alright (Sg. B-SIDE 1991)
TTITLE5=100ミリちょっとの (Rehearsal 1991)
TTITLE6=あの娘が眠ってる[P.W.M.ver.] (Sg. B-SIDE 1992)
TTITLE7=なんてったの [HAKASE mix] (Unreleased Outtake 1992)
TTITLE8=青空のように (Sg. B-SIDE 1993)
TTITLE9=いかれたBaby (Demo 1993)
TTITLE10=Blue Summer [LIVE ver.] (Sg. B-SIDE 1993)
TTITLE11=BANANAMELON (米国音楽 1993)
TTITLE12=MY LIFE (Demo 1994)
TTITLE13=救われる気持ち[LIVE ver.] (Sg. B-SIDE 1994)
TTITLE14=NIYABINGHI BABY (analog 「MELODY」 1994)
EXTD=YEAR: 2005
EXTT0=
EXTT1=
EXTT2=
EXTT3=
EXTT4=
EXTT5=
EXTT6=
EXTT7=
EXTT8=
EXTT9=
EXTT10=
EXTT11=
EXTT12=
EXTT13=
EXTT14=
PLAYORDER=
